# xmcd CD database file
#
# Track frame offsets:
#	150
#	14937
#	29520
#	45522
#	60890
#	84467
#	106690
#	123545
#	136650
#	159065
#	177842
#	199770
#	219615
#	239480
#	265487
#
# Disc length: 4440 seconds
#
# Revision: 0
# Processed by: cddbd v1.5PL3 Copyright (c) Steve Scherf et al.
# Submitted via: CDex 1.51
#
DISCID=c811560f
DTITLE=w-inds. - w-inds. 〜PRIME OF LIFE〜
DYEAR=2003
DGENRE=JPop
TTITLE0=Love Train
TTITLE1=SUPER LOVER 〜I need you tonight〜
TTITLE2=whose is that girl?
TTITLE3=W.O.L. (Wonder Of Love)
TTITLE4=Long Road
TTITLE5=空から降りてきた白い星
TTITLE6=GAME
TTITLE7=so what?
TTITLE8=Love is message
TTITLE9=Ex-Girlfriend
TTITLE10=Dedicated to You
TTITLE11=INFINITY
TTITLE12=Deny
TTITLE13=SUPER LOVER 〜movein' pleasure mix〜
TTITLE14=date
EXTD=YEAR: 2003
EXTT0=
EXTT1=
EXTT2=
EXTT3=
EXTT4=
EXTT5=
EXTT6=
EXTT7=
EXTT8=
EXTT9=
EXTT10=
EXTT11=
EXTT12=
EXTT13=
EXTT14=
PLAYORDER=
